<svg stroke-miterlimit="10" style="fill-rule:nonzero;clip-rule:evenodd;stroke-linecap:round;stroke-linejoin:round" viewBox="0 0 3370.8 2384.2" xml:space="preserve" xmlns="http://www.w3.org/2000/svg" xmlns:vectornator="http://vectornator.io"><defs><linearGradient gradientTransform="rotate(34.2 -462.5 2499) scale(845.438)" gradientUnits="userSpaceOnUse" id="a" x1="0" x2="1" y1="0" y2="0"><stop offset="0" stop-color="#dedacf"/><stop offset="1" stop-color="#a29b91"/></linearGradient></defs><g vectornator:layerName="Layer 4"><path d="M1238.6 963.3a405 405 0 1 1 810 0 405 405 0 0 1-810 0Z" fill="url(#a)" vectornator:layerName="Oval 1"/></g><g vectornator:layerName="Layer 2"><path d="M1566 705.8a3 3 0 0 0-2.3.5c-2 1.4-4 2.9-5.5 4.8a34.8 34.8 0 0 0-7.4 21.3c-.8 13.3 1.4 26.7.6 40-.4 6.1-1.6 12-2.7 18a71 71 0 0 0-1.9 19.4c.4 4.5 1.8 8.9 3.7 13a99 99 0 0 0 20.8 27.1c2.7 2.6 5.3 5.4 8.2 7.7a49 49 0 0 0 10.2 6.4c9.3 4.4 19.6 6.4 29.5 9.1 6.6 1.8 13 4 19.4 6.4 14.6 5.5 29.1 11.9 44.3 15.7 3.1.8 6.2 1.4 9.4 2 3.9.7 8 1.3 11.9 1 6.8-.7 13.4-3.8 19.8-6.3a3 3 0 0 0 1.7-3.8 3 3 0 0 0-3.9-1.7l-8.6 3.4a35 35 0 0 1-9.5 2.5 41 41 0 0 1-11.3-1 140 140 0 0 1-9.8-2.3c-13.8-3.7-27-9.2-40.3-14.3-9.8-3.8-20-6.8-30-10-6.6-2.1-13.3-4.1-19.5-7.2-2.7-1.3-5.4-3-7.8-4.9-3.5-2.8-6.6-6.1-9.8-9.3a140 140 0 0 1-12.7-14.5 58 58 0 0 1-7.4-12.4 29.8 29.8 0 0 1-2.4-12.8c.2-5.2 1.4-10.3 2.4-15.3 1-5.1 1.8-10.3 2.1-15.5.5-8.3 0-16.7-.5-25-.2-5-.4-10 0-15 .4-6.3 1.6-13 5.9-17.9a22 22 0 0 1 4.4-3.8 3 3 0 0 0-1-5.3Z" fill="#2e2c21" vectornator:layerName="Curve 1"/><path d="M1528.4 778.3a3 3 0 0 0-2.2.2c-1.5.7-2 2.5-1.3 4 1.2 2.1 2.5 4.3 4 6.4 1 1.6 2.2 3 3.3 4.6l1.9 3.2c.6 1.1 1.3 2 2 3 1.2 1.5 2.4 2.9 3.6 4.1.8.9 1.8 1.7 2.5 2.6a43.4 43.4 0 0 1 6.4 12 3 3 0 1 0 5.6-2 49 49 0 0 0-4-8.7l-3.2-4.7c-.6-1.1-1.1-2.3-1.8-3.3a40 40 0 0 0-5.8-7.3l-2.6-2.5a57.7 57.7 0 0 1-6.7-10.2c-.3-.7-1-1.2-1.7-1.5Z" fill="#2e2c21" vectornator:layerName="Curve 4"/><g vectornator:layerName="Curve 5" fill="#2e2c21"><path d="M1509.9 809.1c12.6 18 29.7 22.1 50.5 24.3 0 0 24.2 10.9 33.2 11 9 .2 76.3 2.6 93.9.2 17.6-2.4 29.2-5.8 36.2-13.7 7-7.9-6.3 12.4-6.3 12.4l-20.3 14.8c-3.3 2.3-7 3.3-12.8 5.6-11.8 4.7-30.4 7-45.6 7-22.6 0-47.6-11.5-54.8-15.3a98.8 98.8 0 0 1-18.5-17.9c-2.2-2.5-28.8-8.3-31.8-9.6"/><path d="M1510.3 806.2c-.7-.1-1.5 0-2.1.5a3 3 0 0 0-.7 4.1 53.2 53.2 0 0 0 24.7 19.5c.1 0 .1.3.3.3a82.7 82.7 0 0 0 11.4 3.1 423.2 423.2 0 0 1 17.5 5l1.9.9a145.2 145.2 0 0 0 17.7 17.5 167.4 167.4 0 0 0 17.5 8c11 4.2 22.6 7.4 34.3 8.3a144.1 144.1 0 0 0 49.4-5.7l6-2c2.6-1 5.3-2 7.8-3.2 2.6-1.3 5-3 7.3-4.7l11-7.7 3.7-2.8c.7-.5 1.5-1 2-1.6.5-.4.8-1 1.2-1.5l1.8-2.9c1.5-2.2 2.9-4.5 4.2-6.8.7-1.2 1.6-2.5 2-3.8l.2-1v-1.3c0-.7-.6-1.4-1-1.9a3.5 3.5 0 0 0-.7-.5c-3.6-2.1-6 2-8.4 4-1.7 1.7-3.8 3-6 4.1a62.5 62.5 0 0 1-16.3 5.3c-5 1-10 1.8-15.1 2.2-7 .5-14 .6-21 .8-6.2.1-12.4.3-18.5.2-7 0-14-.2-20.9-.4l-19.8-.5-5.7-.1c-1.5 0-3 0-4.5-.3-3.3-.5-6.5-1.5-9.6-2.5a200.2 200.2 0 0 1-18-7c-1-.5-2-1.1-3.1-1.3l-5.1-.6c-3.5-.4-7-1-10.4-1.8l-3.5-1c-1.7-.4-3.4-.8-5.1-1.4-5.6-2-11-4.6-15.6-8.5a52.2 52.2 0 0 1-8.8-9.8 3 3 0 0 0-2-1.2Zm62.8 35.5c3 1 5.8 2.3 8.8 3.2 3.1 1 6.3 1.9 9.4 2.3 2 .3 4.1.2 6.2.3a9313 9313 0 0 1 38.5 1c10.6 0 21.2.5 31.8.5 6.1 0 12.2 0 18.3-.6a113.3 113.3 0 0 0 26.2-5.8l-2.3 1.7-10.7 8c-1.8 1.3-3.6 2.8-5.5 4-2.5 1.4-5.2 2.4-7.9 3.4a93.7 93.7 0 0 1-10.5 3.8 165.1 165.1 0 0 1-43.5 4 156 156 0 0 1-42.5-12.7l-4.6-2.2c-2-1.3-3.9-3-5.6-4.6-2.1-2-4.2-4.2-6.1-6.3Z"/></g><path d="M1755.2 781.4a3 3 0 0 0-2.1.8c-11 10.2-17.4 24-24.5 37a91.3 91.3 0 0 1-16.1 23c-2.2 2-4.6 3.9-6.8 6-4.4 4.2-8.4 8.5-14 11.2a70 70 0 0 1-16.2 4.7c-6.7 1.4-13.5 2.4-20.3 3.2a513.6 513.6 0 0 1-31.2 2.8c-6.7.4-13.3.8-20 1a297.8 297.8 0 0 1-29.2-.9c-13.9-1.1-30.3-3.8-38.5-16.5a39.3 39.3 0 0 1-4.9-12.1 3 3 0 0 0-5.7 1.4c1 4 2.3 7.8 4.2 11.4 2 3.7 4.6 7 7.7 9.7 5.7 5 13 7.8 20.3 9.6a135 135 0 0 0 22 2.7c7.6.5 15.4.5 23.1.6 6.3 0 12.6.3 19 .1 14-.3 28-1.3 41.7-3.5a202 202 0 0 0 17.2-3.6c3.6-1 7.2-2 10.6-3.7 4.1-1.9 8-4.4 11.4-7.4 2.7-2.3 5-4.8 7.7-7.2 2.3-2.2 4.9-4.2 7.2-6.5 4.2-4.3 7.8-9.3 11-14.5 9.1-14.8 15.3-32.1 28.2-44.2a3 3 0 0 0-1.8-5Z" fill="#2e2c21" vectornator:layerName="Curve 6"/><path d="M1722.1 704a3 3 0 0 0-2 3.6c.6 2.4 1.4 4.7 2.6 7 1.4 2.6 3.2 5.1 4.4 7.9a23 23 0 0 1 2 7.7 61 61 0 0 1-.4 11.3l-1 4.8-1.1 8.1c-.8 7.3-.1 14.5 1.3 21.6l1.5 7.2c.6 2.8 1 5.7 1.4 8.5a119 119 0 0 1 1.4 13c.2 3.1-.2 6.2-1 9.3a16 16 0 0 1-2.8 5.8 3 3 0 1 0 4.5 3.7c2.3-2.8 3.5-6.1 4.3-9.6 1.6-6.5.8-13-.1-19.6l-.8-5.1c-.3-2.3-.8-4.6-1-7-.5-3-.6-6-.9-9-.3-3.6-.7-7.3-.8-11 0-2.4 0-4.8.2-7.2l.5-8c0-1.6 0-3.3.2-5 .3-4.5.9-9 .3-13.7a31 31 0 0 0-3.2-10c-1.1-2.2-2.5-4.3-3.7-6.5-1-1.8-1.7-3.7-2.2-5.7a3 3 0 0 0-3.6-2.1Z" fill="#2e2c21" vectornator:layerName="Curve 7"/><path d="M1755 727.3a3 3 0 0 0-3 2.9 55 55 0 0 1-3.2 19.8c-.8 1.9-2 3.7-3.1 5.4l-4.8 7.2a117 117 0 0 0-3.4 5.3l-1.3 2.4-1.7 2.2-3.3 4.7c-3 4.5-5.5 9.2-7.7 14.2a3 3 0 0 0 5.4 2.3 87.3 87.3 0 0 1 8.8-15.6l3.1-4.4 3.7-3.8a53.9 53.9 0 0 0 8.4-13.7l.9-2.8c.8-2.4 1.7-4.7 2.3-7.1a68.4 68.4 0 0 0 1.8-16 3 3 0 0 0-2.9-3Z" fill="#2e2c21" vectornator:layerName="Curve 8"/><path d="M1786.3 739.3a3 3 0 0 0-2.3.1l-10.2 4.8c-1.7.8-3.4 1.9-5.2 2.5l-2.3.8a40.1 40.1 0 0 0-10.6 5.8l-2.8 2.3c-1.5 1.2-3.3 2.2-4.8 3.3a59.2 59.2 0 0 0-9.7 8.6c-1 1.2-1 3 .3 4.1 1.2 1.1 3 1 4.1-.2 2.8-3.2 6.1-6 9.6-8.4 1.2-.8 2.4-1.8 3.7-2.4a77.7 77.7 0 0 0 13.3-7.1l1.9-1.5c1.5-1 3.4-1.7 5-2.5l10.2-4.8a3 3 0 0 0-.2-5.4Z" fill="#2e2c21" vectornator:layerName="Curve 9"/><path d="M1776 807.7c-.8 0-1.5.3-2 .9-3.7 3.6-7.6 7-12 9.7-1 .6-2.2 1.4-3.3 1.9-1 .5-2.3.8-3.5 1.2l-6.7 2.5c-2.3.8-4.7 1.7-7 2.7l-3.4 1.6-7.4 2.5c-4.6 1.6-9 3.4-13.3 5.5a3 3 0 1 0 2.5 5.3c5-2.4 10-4.4 15.2-6.2l4.8-1.5c1.7-.5 3.4-.7 5-1.1a57.1 57.1 0 0 0 13.2-5.2l3.4-2.2 6-3.6c3.8-2.6 7.3-5.7 10.6-9a3 3 0 0 0 0-4.2 3 3 0 0 0-2.1-.8Z" fill="#2e2c21" vectornator:layerName="Curve 10"/><path d="M1755.7 839.8a3 3 0 0 0-3 2.9c-.1 2.7-.5 5.4-1.5 8A27.3 27.3 0 0 1 1740 863a23 23 0 0 1-4.6 2.5c-2.3.9-4.9 1.4-7.3 1.9-6.5 1.3-13.1 1.9-19.8 2.3-2.9.2-5.8.6-8.8.5-11.9-.1-23.7-2-35.7-2a3 3 0 0 0-2.9 2.8 3 3 0 0 0 3 3c7.6 0 15.3.9 23 1.4l8.8.6c1.8 0 3.6 0 5.5.2 2.4.2 4.8.5 7.3.5a60 60 0 0 0 27.8-5c2.3-1.2 4.6-2.3 6.8-3.7a32 32 0 0 0 14.4-18c.7-2.3 1-4.8 1-7.3a3 3 0 0 0-2.8-3Z" fill="#2e2c21" vectornator:layerName="Curve 11"/><path d="M1617.1 884.6a3.5 3.5 0 0 0-.4 6.8c8.6 2.4 17.5 4.4 25.7 8 4 1.7 7.7 3.9 11.6 5.8 4.7 2.3 9.5 4.3 14.4 6a3.5 3.5 0 0 0 2.3-6.6 115 115 0 0 1-13.6-5.7c-4-2-7.8-4.2-12-6-8.5-3.7-17.6-5.8-26.6-8.2h-1.4Z" fill="#2e2c21" vectornator:layerName="Curve 12"/><path d="M1659.5 868a3 3 0 0 0-2.3 0c-7.1 3.1-14.3 6.3-21.5 9.3-3.3 1.4-6.6 2.8-10 4l-5.8 1.6-8.4 2.5a231 231 0 0 1-12.8 3.3c-2 .4-3.9 1-5.8 1.1-3.4.3-7-.2-10.3-.8-6.6-1-13-2.8-19.5-4.5a3 3 0 0 0-3.5 2 3 3 0 0 0 2 3.7c8 2 15.9 4.2 24 5.2 3 .3 5.9.3 8.9.2h3.9a75 75 0 0 0 22.4-5.7l7-3.1c3.4-1.5 6.8-2.7 10.2-4 7.2-3 14.4-6.3 21.6-9.4a2.9 2.9 0 0 0 1.5-3.8c-.4-.8-1-1.3-1.6-1.6Z" fill="#2e2c21" vectornator:layerName="Curve 13"/><path d="M1502 738a3 3 0 0 0-.3 5.4 194.7 194.7 0 0 1 22 12.7c1.5 1 2.8 2.3 4.1 3.5l6.8 5.7a529 529 0 0 1 8 7A59.2 59.2 0 0 1 1559 799a3 3 0 0 0 5.6-1.7 62.5 62.5 0 0 0-8.4-18c-2-3-4.4-5.8-6.7-8.7a64.3 64.3 0 0 0-17.8-16.5c-1.6-1-3.2-1.8-4.8-2.9l-7.7-4.9a218 218 0 0 0-15-8.2 3 3 0 0 0-2.3-.1Z" fill="#2e2c21" vectornator:layerName="Curve 2"/><path d="M1532 727.6a2.5 2.5 0 0 0-2.4 2.5c0 8-.3 16.3 2 24 1 3.5 2.6 6.6 4.5 9.6a2.5 2.5 0 0 0 3.4.8c1.2-.7 1.5-2.3.8-3.4-1.6-2.7-3-5.4-3.8-8.4-2.2-7.3-2-15-2-22.5.1-1.4-1-2.6-2.4-2.6Z" fill="#2e2c21" vectornator:layerName="Curve 3"/><path d="M1556.6 777c0-43.6 39.2-78.8 85.1-78.8 45.9 0 85.9 35.3 85.9 79 0 43.5-41.2 75.9-87 75.9-46 0-84-32.5-84-76.1Z" fill="none" stroke="#2e2c21" stroke-linecap="butt" stroke-width="10" vectornator:layerName="Oval 1"/><path d="M1644.4 753.8c19 0 23.6 15 23.6 23.1 0 8.2 16.3 18 16.3 41.7 0 23.8-16.4 31-41.2 31-24.8 0-40.2-7.8-40.2-30s16.6-25.4 16.6-40.2c0-14.9 5.8-25.6 24.9-25.6Z" fill="none" stroke="#2e2c21" stroke-linecap="butt" stroke-width="7" vectornator:layerName="Curve 14"/><path d="M1637.9 773.2c9 0 8.6 15.7 11.4 15.7 2.8 0 2-15.2 9-15.2" fill="none" stroke="#2e2c21" stroke-width="5" vectornator:layerName="Curve 15"/></g><g vectornator:layerName="Layer 3"><path d="m1766 1153.2 84 .4" fill="none" stroke="#2e2c21" stroke-width="5" vectornator:layerName="Curve 2"/><path d="m1423 1153.2 84 .4" fill="none" stroke="#2e2c21" stroke-width="5" vectornator:layerName="Curve 1"/><path d="M1562 1174.6h-4v-16.3h-16.5v16.3h-4.1v-34.4h4v14.1h16.6v-14.1h4v34.4Zm40-35.3c3.3 0 6.4.8 9.2 2.4a17.8 17.8 0 0 1 9 15.6 18 18 0 0 1-18 18.1 18.4 18.4 0 0 1-15.7-8.9 18 18 0 0 1-2.4-9 18.2 18.2 0 0 1 9-15.8c2.7-1.6 5.7-2.4 8.9-2.4Zm.1 32.2a13.7 13.7 0 0 0 14-14c0-4-1.3-7.4-4-10.1a13.5 13.5 0 0 0-10-4.1 13.9 13.9 0 0 0-13.9 14.1c0 4 1.4 7.3 4.1 10 2.8 2.7 6 4 9.8 4Zm56.1-27.4h-7.5v30.5h-4.1V1144h-7.6v-4h19.2v4Zm40.3.1h-16v9.8h15.8v4h-15.8v12.6h15.8v4h-19.9v-34.4h20v4Zm38.1 30.4h-17v-34.4h4v30.5h13v3.9Z" fill="#2e2c21" vectornator:layerName="HOTEL"/><path d="M1536 965.6V964h-43v1.7c5.5.8 9.8 2.3 12.7 4.3 3 2 5 4.7 6.2 8 1 2.3 1.4 5.7 1.5 10 .2 4.1.2 8.6.2 13.2v59.2l-82.4-96.4h-35.4v1.7c1.9.3 3.8.6 5.9 1.2a16 16 0 0 1 10.2 7.7c1.2 2 2 4.8 2.4 8.2l.1 8.5v21.1a1349.4 1349.4 0 0 1-.7 39.5 281 281 0 0 1-1 17c-.5 4.8-1.5 8.4-3.1 10.9a13.6 13.6 0 0 1-6.6 5.5 34.5 34.5 0 0 1-8.4 2.1v1.8h42.8v-1.8a36 36 0 0 1-11.2-2.8 12.6 12.6 0 0 1-6-6 28.7 28.7 0 0 1-2.2-10.7c-.3-4.7-.4-10-.4-16v-73.4a1716.4 1716.4 0 0 1 44 50.9c7.5 8.6 15.2 17.7 23.3 27.2l27 31.4c1.1 1.1 2.2 1.7 3.1 1.7.6 0 1-.2 1.3-.5.3-.2.5-.6.5-1v-11.4a1068.3 1068.3 0 0 0-.2-25v-11.2a874.4 874.4 0 0 1 1.6-54.5c.2-4.7.7-8 1.5-9.7 1.4-3.3 3.4-5.8 6-7.5 2.6-1.6 6-2.7 10.4-3.3Zm127.4 90.4-1.9-.6c-2.9 5-5.7 9.3-8.4 12.8a56.7 56.7 0 0 1-8.5 9 36.1 36.1 0 0 1-19.3 8.3 94 94 0 0 1-17.2 1c-4.6 0-9-.3-12.9-1-4-.7-6.4-1.8-7.5-3.5a17 17 0 0 1-2-7.4 183 183 0 0 1-.7-20v-20.9c0-3.2 0-5.5.3-7.2h8a80.8 80.8 0 0 1 7.8.4c3.5.2 6.6.8 9.2 1.9 2.6 1 4.8 2.4 6.7 4 2 2 4 5 6 8.9 1.9 4 3.3 7.7 4.2 11.5h2.1v-54.9h-2c-.8 3.3-1.5 6.2-2.4 8.8-.9 2.6-2 5-3.5 6.9-1.4 2-3.3 3.6-5.6 5a30.3 30.3 0 0 1-14.4 4.1 257 257 0 0 1-12.8.6h-3.5v-6.3l-.1-7.4v-11.1a697.2 697.2 0 0 1 .8-31.7l5.7-.6 7.6-.3c7.6 0 14.1.4 19.4 1 5.4.8 9 1.6 11 2.5 8.2 4 17 12 26.5 23.7l1.7-.9-11.8-28.7h-96v1.7c3 .5 5.6 1 7.6 1.5s3.8 1.7 5.5 3.6c.7.7 1.3 1.8 1.7 3.4.4 1.5.7 3.3.9 5.3a106.8 106.8 0 0 1 .4 12.7v44a561.7 561.7 0 0 1-.3 26 90.6 90.6 0 0 1-.8 11 52 52 0 0 1-1 4.7 8 8 0 0 1-1.4 3 16.8 16.8 0 0 1-6.2 4.4 36 36 0 0 1-8 2.2v1.8h106.4l8.7-33.3Zm98.6-1.1c0-8.3-2.3-15.1-6.6-20.6a40.5 40.5 0 0 0-18.4-12.6 289.1 289.1 0 0 0-18.3-6.3l-6.5-2.4c-6-2.3-10.8-5.2-14.5-9a20 20 0 0 1-5.5-14.7c0-4 .6-7.5 2-10.5a21.6 21.6 0 0 1 13.9-12.5 34 34 0 0 1 10.2-1.5c4.5 0 8.6.9 12.3 2.7a37 37 0 0 1 10 7.3 58.5 58.5 0 0 1 13 21.5h1.9V964h-2a65 65 0 0 1-3 4.1c-1 1.4-1.8 2.1-2.2 2.1l-2-1.3c-1.2-.8-3-1.8-5.3-2.9a53.7 53.7 0 0 0-22.6-4.1c-5.6 0-10.9.7-15.9 2.1-5 1.5-9.5 3.7-13.3 6.7a32.9 32.9 0 0 0-12.5 27.5c0 3.8.6 7.3 1.9 10.6a36.3 36.3 0 0 0 21 21 145.2 145.2 0 0 0 12.5 4.4l5.8 2 7.3 2.6c2.8 1 5.4 2.2 7.8 3.5a26 26 0 0 1 6.4 4.6 20.2 20.2 0 0 1 5.8 14.8 24 24 0 0 1-8 19.1c-5.3 4.7-12.3 7-20.9 7a43 43 0 0 1-17.2-4.7c-2-1-4-2.5-6.2-4.5a75.5 75.5 0 0 1-15.4-24.4h-1.7l.5 34.7h1.6l3.1-4c1.2-1.4 2-2.1 2.3-2.1a8 8 0 0 1 2.5 1.2 58 58 0 0 0 16.1 5.2 87.5 87.5 0 0 0 32.9-1.2 39.7 39.7 0 0 0 14.3-7 32.3 32.3 0 0 0 12.8-26.3Zm138.6-58.9-5.6-33.9a56 56 0 0 1-17.2 3 717.9 717.9 0 0 0-22 .3h-43.1a605.7 605.7 0 0 1-31.7-1 79 79 0 0 1-7.4-1.4l-5.2 33 1.5.6a71.5 71.5 0 0 1 10.5-18 24.4 24.4 0 0 1 11.2-8.4 39 39 0 0 1 10.9-1.6 171.2 171.2 0 0 0 10.6-.2h11.5v67.6l-.1 10-.2 8.9a299.7 299.7 0 0 0-.2 12.2 72.9 72.9 0 0 1-1 10 5.8 5.8 0 0 1-1.3 2.9 18 18 0 0 1-8.2 5.7c-2.8.8-5.7 1.4-8.7 1.7v1.8h56.5v-1.8c-2.5-.4-5.4-1.1-8.6-2a13 13 0 0 1-7.4-5.3c-.9-1.3-1.4-3.4-1.6-6.5-.2-3-.3-6.3-.3-9.7v-68a1310 1310 0 0 1 .2-27.5h11.4a137 137 0 0 1 10.7.2c4.4.1 8 .5 10.9 1.3 2.8.7 5.5 2.3 7.9 4.6 1 .8 2 2 3.3 3.7a126.3 126.3 0 0 1 7.8 11.9c1.3 2.2 2.4 4.4 3.3 6.5l1.6-.5Z" fill="#2e2c21" vectornator:layerName="NEST"/></g></svg>