<?xml version="1.0" encoding="utf-8"?>
<!-- Generator: Adobe Illustrator 27.0.0, SVG Export Plug-In . SVG Version: 6.00 Build 0)  -->
<svg version="1.1" id="Layer_1" xmlns:vectornator="http://vectornator.io"
	 xmlns="http://www.w3.org/2000/svg" xmlns:xlink="http://www.w3.org/1999/xlink" x="0px" y="0px" viewBox="0 0 810 810"
	 style="enable-background:new 0 0 810 810;" xml:space="preserve">
<style type="text/css">
	.st0{fill:url(#SVGID_1_);}
	.st1{fill:#2E2C21;}
	.st2{fill:none;stroke:#2E2C21;stroke-width:10;stroke-linejoin:round;stroke-miterlimit:10;}
	.st3{fill:none;stroke:#2E2C21;stroke-width:7;stroke-linejoin:round;stroke-miterlimit:10;}
	.st4{fill:none;stroke:#2E2C21;stroke-width:5;stroke-linecap:round;stroke-linejoin:round;stroke-miterlimit:10;}
</style>
<g vectornator:layerName="Layer 4">
	
		<linearGradient id="SVGID_1_" gradientUnits="userSpaceOnUse" x1="138.5218" y1="1029.5087" x2="139.5218" y2="1029.5087" gradientTransform="matrix(699.2453 475.2066 475.2066 -699.2453 -586029.3125 654223.6875)">
		<stop  offset="0" style="stop-color:#DEDACF"/>
		<stop  offset="1" style="stop-color:#A29B91"/>
	</linearGradient>
	<path vectornator:layerName="Oval 1" class="st0" d="M0,405C0,181.3,181.3,0,405,0s405,181.3,405,405S628.7,810,405,810
		S0,628.7,0,405L0,405z"/>
</g>
<g vectornator:layerName="Layer 2">
	<path vectornator:layerName="Curve 1" class="st1" d="M327.4,147.5c-0.8-0.2-1.6,0-2.3,0.5c-2,1.4-4,2.9-5.5,4.8
		c-4.8,6.1-7.4,13.6-7.4,21.3c-0.8,13.3,1.4,26.7,0.6,40c-0.4,6.1-1.6,12-2.7,18c-1.5,6.3-2.2,12.9-1.9,19.4c0.4,4.5,1.8,8.9,3.7,13
		c5.3,10.2,12.3,19.3,20.8,27.1c2.7,2.6,5.3,5.4,8.2,7.7c3.1,2.5,6.5,4.7,10.2,6.4c9.3,4.4,19.6,6.4,29.5,9.1c6.6,1.8,13,4,19.4,6.4
		c14.6,5.5,29.1,11.9,44.3,15.7c3.1,0.8,6.2,1.4,9.4,2c3.9,0.7,8,1.3,11.9,1c6.8-0.7,13.4-3.8,19.8-6.3c1.5-0.6,2.2-2.3,1.7-3.8
		c-0.6-1.5-2.3-2.3-3.9-1.7c0,0,0,0,0,0l-8.6,3.4c-3,1.3-6.2,2.1-9.5,2.5c-3.8,0.2-7.6-0.1-11.3-1c-3.3-0.6-6.6-1.4-9.8-2.3
		c-13.8-3.7-27-9.2-40.3-14.3c-9.8-3.8-20-6.8-30-10c-6.6-2.1-13.3-4.1-19.5-7.2c-2.7-1.3-5.4-3-7.8-4.9c-3.5-2.8-6.6-6.1-9.8-9.3
		c-4.6-4.5-8.8-9.4-12.7-14.5c-3-3.8-5.5-8-7.4-12.4c-1.7-4-2.6-8.4-2.4-12.8c0.2-5.2,1.4-10.3,2.4-15.3c1-5.1,1.8-10.3,2.1-15.5
		c0.5-8.3,0-16.7-0.5-25c-0.2-5-0.4-10,0-15c0.4-6.3,1.6-13,5.9-17.9c1.3-1.5,2.8-2.7,4.4-3.8c1.3-1,1.6-2.9,0.6-4.2
		C328.6,148.1,328,147.7,327.4,147.5L327.4,147.5z"/>
	<path vectornator:layerName="Curve 4" class="st1" d="M289.8,220c-0.7-0.2-1.5-0.1-2.2,0.2c-1.5,0.7-2,2.5-1.3,4
		c1.2,2.1,2.5,4.3,4,6.4c1,1.6,2.2,3,3.3,4.6l1.9,3.2c0.6,1.1,1.3,2,2,3c1.2,1.5,2.4,2.9,3.6,4.1c0.8,0.9,1.8,1.7,2.5,2.6
		c2.8,3.6,4.9,7.7,6.4,12c0.3,1.6,1.9,2.7,3.6,2.3c1.6-0.3,2.7-1.9,2.3-3.6c-0.1-0.3-0.1-0.5-0.3-0.8c-1-3-2.4-5.9-4-8.7l-3.2-4.7
		c-0.6-1.1-1.1-2.3-1.8-3.3c-1.6-2.7-3.6-5.1-5.8-7.3l-2.6-2.5c-2.6-3.2-4.8-6.6-6.7-10.2c-0.3-0.7-1-1.2-1.7-1.5L289.8,220z"/>
	<g vectornator:layerName="Curve 5">
		<path class="st1" d="M271.3,250.8c12.6,18,29.7,22.1,50.5,24.3c0,0,24.2,10.9,33.2,11c9,0.2,76.3,2.6,93.9,0.2
			c17.6-2.4,29.2-5.8,36.2-13.7s-6.3,12.4-6.3,12.4l-20.3,14.8c-3.3,2.3-7,3.3-12.8,5.6c-11.8,4.7-30.4,7-45.6,7
			c-22.6,0-47.6-11.5-54.8-15.3c-6.9-5.1-13.1-11.2-18.5-17.9c-2.2-2.5-28.8-8.3-31.8-9.6"/>
		<path class="st1" d="M271.7,247.9c-0.7-0.1-1.5,0-2.1,0.5c-1.3,1-1.6,2.8-0.7,4.1c6.1,8.8,14.7,15.6,24.7,19.5
			c0.1,0,0.1,0.3,0.3,0.3c3.7,1.3,7.5,2.3,11.4,3.1c5.9,1.5,11.7,3.2,17.5,5l1.9,0.9c5.4,6.3,11.3,12.2,17.7,17.5
			c5.7,3,11.5,5.7,17.5,8c11,4.2,22.6,7.4,34.3,8.3c16.7,1,33.4-1,49.4-5.7l6-2c2.6-1,5.3-2,7.8-3.2c2.6-1.3,5-3,7.3-4.7l11-7.7
			l3.7-2.8c0.7-0.5,1.5-1,2-1.6c0.5-0.4,0.8-1,1.2-1.5l1.8-2.9c1.5-2.2,2.9-4.5,4.2-6.8c0.7-1.2,1.6-2.5,2-3.8l0.2-1v-1.3
			c0-0.7-0.6-1.4-1-1.9c-0.2-0.2-0.4-0.4-0.7-0.5c-3.6-2.1-6,2-8.4,4c-1.7,1.7-3.8,3-6,4.1c-5.2,2.5-10.6,4.3-16.3,5.3
			c-5,1-10,1.8-15.1,2.2c-7,0.5-14,0.6-21,0.8c-6.2,0.1-12.4,0.3-18.5,0.2c-7,0-14-0.2-20.9-0.4l-19.8-0.5l-5.7-0.1
			c-1.5,0-3,0-4.5-0.3c-3.3-0.5-6.5-1.5-9.6-2.5c-6.1-2-12.1-4.4-18-7c-1-0.5-2-1.1-3.1-1.3l-5.1-0.6c-3.5-0.4-7-1-10.4-1.8l-3.5-1
			c-1.7-0.4-3.4-0.8-5.1-1.4c-5.6-2-11-4.6-15.6-8.5c-3.3-2.9-6.3-6.2-8.8-9.8C273.2,248.4,272.5,248,271.7,247.9L271.7,247.9z
			 M334.5,283.4c3,1,5.8,2.3,8.8,3.2c3.1,1,6.3,1.9,9.4,2.3c2,0.3,4.1,0.2,6.2,0.3c12.8,0.3,25.7,0.6,38.5,1
			c10.6,0,21.2,0.5,31.8,0.5c6.1,0,12.2,0,18.3-0.6c8.9-0.9,17.7-2.8,26.2-5.8l-2.3,1.7l-10.7,8c-1.8,1.3-3.6,2.8-5.5,4
			c-2.5,1.4-5.2,2.4-7.9,3.4c-3.4,1.5-6.9,2.7-10.5,3.8c-14.3,3.3-28.9,4.6-43.5,4c-14.7-2.2-29-6.5-42.5-12.7l-4.6-2.2
			c-2-1.3-3.9-3-5.6-4.6C338.5,287.7,336.4,285.5,334.5,283.4L334.5,283.4z"/>
	</g>
	<path vectornator:layerName="Curve 6" class="st1" d="M516.6,223.1c-0.8,0-1.5,0.3-2.1,0.8c-11,10.2-17.4,24-24.5,37
		c-4.1,8.5-9.6,16.2-16.1,23c-2.2,2-4.6,3.9-6.8,6c-4.4,4.2-8.4,8.5-14,11.2c-5.2,2.2-10.6,3.8-16.2,4.7c-6.7,1.4-13.5,2.4-20.3,3.2
		c-10.4,1.3-20.8,2.2-31.2,2.8c-6.7,0.4-13.3,0.8-20,1c-9.7,0.2-19.5-0.1-29.2-0.9c-13.9-1.1-30.3-3.8-38.5-16.5
		c-2.3-3.7-4-7.8-4.9-12.1c-0.7-1.5-2.5-2.1-4-1.4c-1.1,0.5-1.7,1.6-1.7,2.8c1,4,2.3,7.8,4.2,11.4c2,3.7,4.6,7,7.7,9.7
		c5.7,5,13,7.8,20.3,9.6c7.2,1.5,14.6,2.4,22,2.7c7.6,0.5,15.4,0.5,23.1,0.6c6.3,0,12.6,0.3,19,0.1c14-0.3,28-1.3,41.7-3.5
		c5.8-0.9,11.5-2.2,17.2-3.6c3.6-1,7.2-2,10.6-3.7c4.1-1.9,8-4.4,11.4-7.4c2.7-2.3,5-4.8,7.7-7.2c2.3-2.2,4.9-4.2,7.2-6.5
		c4.2-4.3,7.8-9.3,11-14.5c9.1-14.8,15.3-32.1,28.2-44.2c1.1-1.2,1-3.1-0.2-4.2C517.8,223.5,517.2,223.3,516.6,223.1L516.6,223.1z"
		/>
	<path vectornator:layerName="Curve 7" class="st1" d="M483.5,145.7c-1.5,0.5-2.4,2.1-2,3.6c0.6,2.4,1.4,4.7,2.6,7
		c1.4,2.6,3.2,5.1,4.4,7.9c1.1,2.4,1.8,5,2,7.7c0.2,3.8,0.1,7.6-0.4,11.3l-1,4.8l-1.1,8.1c-0.8,7.3-0.1,14.5,1.3,21.6l1.5,7.2
		c0.6,2.8,1,5.7,1.4,8.5c0.7,4.3,1.2,8.6,1.4,13c0.2,3.1-0.2,6.2-1,9.3c-0.5,2.1-1.5,4.1-2.8,5.8c-1.3,1-1.6,2.9-0.6,4.2
		c1,1.3,2.9,1.6,4.2,0.6c0.4-0.3,0.7-0.7,0.9-1.1c2.3-2.8,3.5-6.1,4.3-9.6c1.6-6.5,0.8-13-0.1-19.6l-0.8-5.1c-0.3-2.3-0.8-4.6-1-7
		c-0.5-3-0.6-6-0.9-9c-0.3-3.6-0.7-7.3-0.8-11c0-2.4,0-4.8,0.2-7.2l0.5-8c0-1.6,0-3.3,0.2-5c0.3-4.5,0.9-9,0.3-13.7
		c-0.5-3.5-1.6-6.9-3.2-10c-1.1-2.2-2.5-4.3-3.7-6.5c-1-1.8-1.7-3.7-2.2-5.7C486.7,146.2,485.1,145.3,483.5,145.7L483.5,145.7z"/>
	<path vectornator:layerName="Curve 8" class="st1" d="M516.4,169c-1.6,0-2.9,1.3-3,2.9c0.2,6.7-0.9,13.5-3.2,19.8
		c-0.8,1.9-2,3.7-3.1,5.4l-4.8,7.2c-1.2,1.7-2.3,3.5-3.4,5.3l-1.3,2.4l-1.7,2.2l-3.3,4.7c-3,4.5-5.5,9.2-7.7,14.2
		c-0.3,1.6,0.7,3.2,2.4,3.5c1.2,0.2,2.4-0.3,3-1.2c2.4-5.5,5.3-10.7,8.8-15.6l3.1-4.4l3.7-3.8c3.5-4.1,6.3-8.7,8.4-13.7l0.9-2.8
		c0.8-2.4,1.7-4.7,2.3-7.1c1.2-5.2,1.8-10.6,1.8-16C519.3,170.4,518,169.1,516.4,169L516.4,169z"/>
	<path vectornator:layerName="Curve 9" class="st1" d="M547.7,181c-0.7-0.3-1.6-0.2-2.3,0.1l-10.2,4.8c-1.7,0.8-3.4,1.9-5.2,2.5
		l-2.3,0.8c-3.8,1.4-7.4,3.3-10.6,5.8l-2.8,2.3c-1.5,1.2-3.3,2.2-4.8,3.3c-3.5,2.5-6.8,5.4-9.7,8.6c-1,1.2-1,3,0.3,4.1
		c1.2,1.1,3,1,4.1-0.2c2.8-3.2,6.1-6,9.6-8.4c1.2-0.8,2.4-1.8,3.7-2.4c4.7-1.9,9.1-4.3,13.3-7.1l1.9-1.5c1.5-1,3.4-1.7,5-2.5
		l10.2-4.8c1.5-0.8,2-2.6,1.2-4.1C548.8,181.7,548.3,181.3,547.7,181L547.7,181z"/>
	<path vectornator:layerName="Curve 10" class="st1" d="M537.4,249.4c-0.8,0-1.5,0.3-2,0.9c-3.7,3.6-7.6,7-12,9.7
		c-1,0.6-2.2,1.4-3.3,1.9c-1,0.5-2.3,0.8-3.5,1.2l-6.7,2.5c-2.3,0.8-4.7,1.7-7,2.7l-3.4,1.6l-7.4,2.5c-4.6,1.6-9,3.4-13.3,5.5
		c-1.6,0.4-2.6,2-2.3,3.6c0.4,1.6,2,2.6,3.6,2.3c0.4-0.1,0.8-0.3,1.2-0.5c5-2.4,10-4.4,15.2-6.2l4.8-1.5c1.7-0.5,3.4-0.7,5-1.1
		c4.6-1.2,9-2.9,13.2-5.2l3.4-2.2l6-3.6c3.8-2.6,7.3-5.7,10.6-9c1.1-1.2,1.1-3,0-4.2C538.9,249.7,538.2,249.4,537.4,249.4
		L537.4,249.4z"/>
	<path vectornator:layerName="Curve 11" class="st1" d="M517.1,281.5c-1.6,0-2.9,1.3-3,2.9c-0.1,2.7-0.5,5.4-1.5,8
		c-2.4,5.2-6.3,9.5-11.2,12.3c-1.4,1-3,1.8-4.6,2.5c-2.3,0.9-4.9,1.4-7.3,1.9c-6.5,1.3-13.1,1.9-19.8,2.3c-2.9,0.2-5.8,0.6-8.8,0.5
		c-11.9-0.1-23.7-2-35.7-2c-1.5,0-2.8,1.3-2.9,2.8c0,1.7,1.3,3,3,3c7.6,0,15.3,0.9,23,1.4l8.8,0.6c1.8,0,3.6,0,5.5,0.2
		c2.4,0.2,4.8,0.5,7.3,0.5c9.5,0.6,19.1-1.1,27.8-5c2.3-1.2,4.6-2.3,6.8-3.7c6.9-4,12-10.4,14.4-18c0.7-2.3,1-4.8,1-7.3
		C519.9,282.8,518.7,281.5,517.1,281.5L517.1,281.5z"/>
	<path vectornator:layerName="Curve 12" class="st1" d="M378.5,326.3c-1.9,0.3-3.2,2.1-2.8,4.1c0.2,1.3,1.2,2.4,2.4,2.7
		c8.6,2.4,17.5,4.4,25.7,8c4,1.7,7.7,3.9,11.6,5.8c4.7,2.3,9.5,4.3,14.4,6c1.9,0.5,3.8-0.5,4.3-2.4c0.5-1.7-0.4-3.5-2-4.2
		c-4.7-1.6-9.2-3.5-13.6-5.7c-4-2-7.8-4.2-12-6c-8.5-3.7-17.6-5.8-26.6-8.2L378.5,326.3L378.5,326.3z"/>
	<path vectornator:layerName="Curve 13" class="st1" d="M420.9,309.7c-0.7-0.3-1.6-0.3-2.3,0c-7.1,3.1-14.3,6.3-21.5,9.3
		c-3.3,1.4-6.6,2.8-10,4l-5.8,1.6l-8.4,2.5c-4.2,1.2-8.5,2.3-12.8,3.3c-2,0.4-3.9,1-5.8,1.1c-3.4,0.3-7-0.2-10.3-0.8
		c-6.6-1-13-2.8-19.5-4.5c-1.5-0.3-3,0.5-3.5,2c-0.5,1.6,0.4,3.2,2,3.7c8,2,15.9,4.2,24,5.2c3,0.3,5.9,0.3,8.9,0.2h3.9
		c7.7-0.7,15.3-2.7,22.4-5.7l7-3.1c3.4-1.5,6.8-2.7,10.2-4c7.2-3,14.4-6.3,21.6-9.4c1.5-0.6,2.1-2.3,1.5-3.8
		C422.1,310.5,421.5,310,420.9,309.7L420.9,309.7z"/>
	<path vectornator:layerName="Curve 2" class="st1" d="M263.4,179.7c-1.5,0.6-2.3,2.4-1.6,3.9c0.3,0.6,0.7,1.2,1.3,1.5
		c7.6,3.7,15,8,22,12.7c1.5,1,2.8,2.3,4.1,3.5l6.8,5.7c2.7,2.3,5.4,4.6,8,7c7.8,7.3,13.4,16.5,16.4,26.7c0.8,1.4,2.7,1.9,4.1,1.1
		c1-0.6,1.6-1.7,1.5-2.8c-1.8-6.4-4.7-12.5-8.4-18c-2-3-4.4-5.8-6.7-8.7c-4.8-6.6-10.9-12.2-17.8-16.5c-1.6-1-3.2-1.8-4.8-2.9
		l-7.7-4.9c-4.9-2.9-9.9-5.7-15-8.2c-0.7-0.3-1.6-0.4-2.3-0.1L263.4,179.7z"/>
	<path vectornator:layerName="Curve 3" class="st1" d="M293.4,169.3c-1.3,0.1-2.4,1.2-2.4,2.5c0,8-0.3,16.3,2,24
		c1,3.5,2.6,6.6,4.5,9.6c0.7,1.1,2.2,1.5,3.4,0.8c1.2-0.7,1.5-2.3,0.8-3.4c-1.6-2.7-3-5.4-3.8-8.4c-2.2-7.3-2-15-2-22.5
		C296,170.5,294.9,169.3,293.4,169.3L293.4,169.3z"/>
	<path vectornator:layerName="Oval 1" class="st2" d="M318,218.7c0-43.6,39.2-78.8,85.1-78.8s85.9,35.3,85.9,79
		c0,43.5-41.2,75.9-87,75.9C356,294.8,318,262.3,318,218.7L318,218.7z"/>
	<path vectornator:layerName="Curve 14" class="st3" d="M405.8,195.5c19,0,23.6,15,23.6,23.1c0,8.2,16.3,18,16.3,41.7
		c0,23.8-16.4,31-41.2,31c-24.8,0-40.2-7.8-40.2-30s16.6-25.4,16.6-40.2C380.9,206.2,386.7,195.5,405.8,195.5L405.8,195.5z"/>
	<path vectornator:layerName="Curve 15" class="st4" d="M399.3,214.9c9,0,8.6,15.7,11.4,15.7s2-15.2,9-15.2"/>
</g>
<g vectornator:layerName="Layer 3">
	<path vectornator:layerName="Curve 2" class="st4" d="M527.4,594.9l84,0.4"/>
	<path vectornator:layerName="Curve 1" class="st4" d="M184.4,594.9l84,0.4"/>
	<path vectornator:layerName="HOTEL" class="st1" d="M323.4,616.3h-4V600h-16.5v16.3h-4.1v-34.4h4V596h16.6v-14.1h4V616.3z
		 M363.4,581c3.3,0,6.4,0.8,9.2,2.4c5.6,3.2,9,9.2,9,15.6c0.1,9.9-8,18-17.9,18.1c0,0-0.1,0-0.1,0c-6.4,0-12.4-3.4-15.7-8.9
		c-1.6-2.7-2.4-5.8-2.4-9c0-6.5,3.4-12.5,9-15.8C357.2,581.8,360.2,581,363.4,581L363.4,581z M363.5,613.2c7.6,0.2,13.8-5.8,14-13.4
		c0-0.2,0-0.4,0-0.6c0-4-1.3-7.4-4-10.1c-2.6-2.7-6.2-4.2-10-4.1c-7.7,0-13.9,6.2-13.9,13.9c0,0.1,0,0.1,0,0.2c0,4,1.4,7.3,4.1,10
		C356.5,611.8,359.7,613.1,363.5,613.2L363.5,613.2z M419.6,585.8h-7.5v30.5H408v-30.6h-7.6v-4h19.2V585.8L419.6,585.8z
		 M459.9,585.9h-16v9.8h15.8v4h-15.8v12.6h15.8v4h-19.9v-34.4h20L459.9,585.9L459.9,585.9z M498,616.3h-17v-34.4h4v30.5h13V616.3z"
		/>
	<path vectornator:layerName="NEST" class="st1" d="M297.4,407.3v-1.6h-43v1.7c5.5,0.8,9.8,2.3,12.7,4.3c3,2,5,4.7,6.2,8
		c1,2.3,1.4,5.7,1.5,10c0.2,4.1,0.2,8.6,0.2,13.2v59.2l-82.4-96.4h-35.4v1.7c1.9,0.3,3.8,0.6,5.9,1.2c4.3,1,8,3.8,10.2,7.7
		c1.2,2,2,4.8,2.4,8.2l0.1,8.5v21.1c0,13.2-0.3,26.3-0.7,39.5c-0.2,5.7-0.5,11.3-1,17c-0.5,4.8-1.5,8.4-3.1,10.9
		c-1.5,2.5-3.9,4.4-6.6,5.5c-2.7,1-5.5,1.8-8.4,2.1v1.8h42.8v-1.8c-3.9-0.3-7.6-1.3-11.2-2.8c-2.6-1.2-4.8-3.4-6-6
		c-1.4-3.4-2.2-7-2.2-10.7c-0.3-4.7-0.4-10-0.4-16v-73.4c15,16.7,29.7,33.6,44,50.9c7.5,8.6,15.2,17.7,23.3,27.2l27,31.4
		c1.1,1.1,2.2,1.7,3.1,1.7c0.6,0,1-0.2,1.3-0.5c0.3-0.2,0.5-0.6,0.5-1v-11.4c0-8.3,0-16.7-0.2-25v-11.2c0-18.2,0.5-36.4,1.6-54.5
		c0.2-4.7,0.7-8,1.5-9.7c1.4-3.3,3.4-5.8,6-7.5c2.6-1.6,6-2.7,10.4-3.3H297.4z M424.8,497.7l-1.9-0.6c-2.9,5-5.7,9.3-8.4,12.8
		c-2.5,3.3-5.3,6.3-8.5,9c-5.5,4.6-12.2,7.5-19.3,8.3c-5.7,0.9-11.4,1.2-17.2,1c-4.6,0-9-0.3-12.9-1c-4-0.7-6.4-1.8-7.5-3.5
		c-1.2-2.3-1.9-4.8-2-7.4c-0.6-6.6-0.8-13.3-0.7-20v-20.9c0-3.2,0-5.5,0.3-7.2h8c2.6,0,5.2,0.1,7.8,0.4c3.5,0.2,6.6,0.8,9.2,1.9
		c2.6,1,4.8,2.4,6.7,4c2,2,4,5,6,8.9c1.9,4,3.3,7.7,4.2,11.5h2.1V440h-2c-0.8,3.3-1.5,6.2-2.4,8.8s-2,5-3.5,6.9
		c-1.4,2-3.3,3.6-5.6,5c-4.4,2.5-9.3,4-14.4,4.1c-4.3,0.3-8.5,0.5-12.8,0.6h-3.5v-6.3l-0.1-7.4v-11.1c0-10.6,0.3-21.1,0.8-31.7
		l5.7-0.6l7.6-0.3c7.6,0,14.1,0.4,19.4,1c5.4,0.8,9,1.6,11,2.5c8.2,4,17,12,26.5,23.7l1.7-0.9l-11.8-28.7h-96v1.7
		c3,0.5,5.6,1,7.6,1.5s3.8,1.7,5.5,3.6c0.7,0.7,1.3,1.8,1.7,3.4c0.4,1.5,0.7,3.3,0.9,5.3c0.4,4.2,0.5,8.5,0.4,12.7v44
		c0.1,8.7,0,17.3-0.3,26c0,3.7-0.3,7.4-0.8,11c-0.3,1.6-0.6,3.1-1,4.7c-0.3,1.1-0.7,2.1-1.4,3c-1.7,1.9-3.8,3.4-6.2,4.4
		c-2.6,1-5.3,1.8-8,2.2v1.8h106.4L424.8,497.7L424.8,497.7z M523.4,496.6c0-8.3-2.3-15.1-6.6-20.6c-4.8-5.8-11.2-10.2-18.4-12.6
		c-6-2.3-12.1-4.4-18.3-6.3l-6.5-2.4c-6-2.3-10.8-5.2-14.5-9c-3.8-3.9-5.7-9.3-5.5-14.7c0-4,0.6-7.5,2-10.5
		c2.5-6.1,7.6-10.7,13.9-12.5c3.3-1,6.7-1.5,10.2-1.5c4.5,0,8.6,0.9,12.3,2.7c3.7,1.9,7.1,4.3,10,7.3c5.8,6.1,10.3,13.5,13,21.5h1.9
		v-32.3h-2c-0.9,1.4-1.9,2.8-3,4.1c-1,1.4-1.8,2.1-2.2,2.1l-2-1.3c-1.2-0.8-3-1.8-5.3-2.9c-7.1-3-14.9-4.4-22.6-4.1
		c-5.6,0-10.9,0.7-15.9,2.1c-5,1.5-9.5,3.7-13.3,6.7c-8.4,6.6-13,16.8-12.5,27.5c0,3.8,0.6,7.3,1.9,10.6c3.7,9.7,11.3,17.3,21,21
		c4.1,1.7,8.3,3.1,12.5,4.4l5.8,2l7.3,2.6c2.8,1,5.4,2.2,7.8,3.5c2.4,1.2,4.5,2.8,6.4,4.6c3.9,3.9,6,9.3,5.8,14.8
		c0.4,7.2-2.6,14.3-8,19.1c-5.3,4.7-12.3,7-20.9,7c-6-0.3-11.9-1.9-17.2-4.7c-2-1-4-2.5-6.2-4.5c-6.7-7.1-11.9-15.4-15.4-24.4h-1.7
		l0.5,34.7h1.6l3.1-4c1.2-1.4,2-2.1,2.3-2.1c0.9,0.3,1.7,0.7,2.5,1.2c5.1,2.5,10.5,4.3,16.1,5.2c10.9,1.7,22.1,1.3,32.9-1.2
		c5.2-1.3,10.1-3.7,14.3-7c8.2-6.2,13-16,12.8-26.3L523.4,496.6z M662,437.7l-5.6-33.9c-5.5,1.9-11.3,2.9-17.2,3
		c-7.3,0-14.7,0.1-22,0.3h-43.1c-10.6-0.1-21.1-0.4-31.7-1c-2.5-0.3-5-0.8-7.4-1.4l-5.2,33l1.5,0.6c2.6-6.5,6.1-12.5,10.5-18
		c2.8-3.8,6.7-6.8,11.2-8.4c3.5-1,7.2-1.6,10.9-1.6c3.5,0,7.1,0,10.6-0.2H586v67.6l-0.1,10l-0.2,8.9c-0.1,4.1-0.2,8.1-0.2,12.2
		c-0.1,3.4-0.4,6.7-1,10c-0.2,1.1-0.6,2.1-1.3,2.9c-2.1,2.6-5,4.6-8.2,5.7c-2.8,0.8-5.7,1.4-8.7,1.7v1.8h56.5v-1.8
		c-2.5-0.4-5.4-1.1-8.6-2c-3-0.8-5.7-2.7-7.4-5.3c-0.9-1.3-1.4-3.4-1.6-6.5c-0.2-3-0.3-6.3-0.3-9.7v-68c0-9.2,0-18.3,0.2-27.5h11.4
		c3.6-0.1,7.1,0,10.7,0.2c4.4,0.1,8,0.5,10.9,1.3c2.8,0.7,5.5,2.3,7.9,4.6c1,0.8,2,2,3.3,3.7c2.8,3.8,5.4,7.8,7.8,11.9
		c1.3,2.2,2.4,4.4,3.3,6.5L662,437.7L662,437.7z"/>
</g>
</svg>
